<?xml version="1.0" encoding="UTF-8"?><!DOCTYPE svg PUBLIC "-//W3C//DTD SVG 1.1//EN" "http://www.w3.org/Graphics/SVG/1.1/DTD/svg11.dtd"><svg xmlns="http://www.w3.org/2000/svg"><defs><linearGradient id="--loadera" gradientUnits="userSpaceOnUse" x1="5.836" y1="44.183" x2="135.998" y2="-85.979"><stop offset="0" stop-color="#2852a0"/><stop offset="1" stop-color="#0b2d55"/></linearGradient><linearGradient id="--loaderb" gradientUnits="userSpaceOnUse" x1="42.648" y1="80.996" x2="172.81" y2="-49.167"><stop offset="0" stop-color="#2852a0"/><stop offset="1" stop-color="#0b2d55"/></linearGradient><linearGradient id="--loaderc" gradientUnits="userSpaceOnUse" x1="74.483" y1="112.83" x2="204.645" y2="-17.332"><stop offset="0" stop-color="#2852a0"/><stop offset="1" stop-color="#0b2d55"/></linearGradient><linearGradient id="--loaderd" gradientUnits="userSpaceOnUse" x1="42.73" y1="81.078" x2="172.892" y2="-49.085"><stop offset="0" stop-color="#2852a0"/><stop offset="1" stop-color="#0b2d55"/></linearGradient><linearGradient id="--loadere" gradientUnits="userSpaceOnUse" x1="67.349" y1="105.696" x2="197.511" y2="-24.466"><stop offset="0" stop-color="#2852a0"/><stop offset="1" stop-color="#0b2d55"/></linearGradient><linearGradient id="--logomarka" gradientUnits="userSpaceOnUse" x1="-10.539" y1="101.61" x2="119.623" y2="-28.552"><stop offset="0" stop-color="#2852a0"/><stop offset="1" stop-color="#0b2d55"/></linearGradient><linearGradient id="--logomarkb" gradientUnits="userSpaceOnUse" x1="-10.457" y1="101.692" x2="119.705" y2="-28.471"><stop offset="0" stop-color="#2852a0"/><stop offset="1" stop-color="#0b2d55"/></linearGradient></defs><symbol id="--background" viewBox="0 0 49.2 70"><path fill="#F9F9F9" d="M47.3 63.1c-3.1 1.3-6.6 2-10.5 2s-7.4-.7-10.5-2-5.7-3.3-8-5.8-3.8-5.6-5-9.3c-1.2-3.6-1.8-7.7-1.8-12.2 0-4.7.6-9 1.8-12.8s2.8-7.1 5-9.8 4.8-4.7 8-6.1S33 4.9 36.8 4.9c3.9 0 7.4.7 10.5 2.1.6.4 1.2.7 1.7 1V2C45.2.6 41 0 36.7 0c-5.1 0-10 .9-14.5 2.7-4.4 1.8-8.4 4.3-11.7 7.6s-5.8 7-7.8 11.2C.9 25.9 0 30.5 0 35.6c0 4.7 1 9.3 2.9 13.4 1.9 4.2 4.5 7.9 7.9 10.9 3.3 3.1 7.2 5.5 11.7 7.4 4.4 1.8 9.3 2.7 14.4 2.7 4.3 0 8.4-.6 12.3-1.9v-5.8c-.7.2-1.3.5-1.9.8z"/><path fill="#F9F9F9" d="M40.6 20.8c-.7-.2-1.4.2-1.6.9L31.7 49l2.6.7 7.4-27.3c0-.7-.4-1.4-1.1-1.6z"/></symbol><symbol id="--loader" viewBox="0 0 200 100"><path fill="url(#--loadera)" d="M43.1 43.3L17.7 9.8h-.2v22.9c0 1.8.1 3.2.2 4.2s.4 1.8.8 2.4c.4.6.9.9 1.6 1.1.7.2 1.6.3 2.8.3v2H8.3v-2c1.3 0 2.3-.2 3-.3.8-.2 1.4-.6 1.8-1.1.4-.5.7-1.3.9-2.3.1-1 .2-2.3.2-4V11.3c0-1.5-.1-2.7-.2-3.7s-.4-1.8-.8-2.3c-.4-.6-.9-1-1.6-1.2-.6-.3-1.6-.5-2.7-.6v-2h10.6l23.4 31.3h.2V11.6c0-1.8-.1-3.2-.2-4.2-.1-1.1-.4-1.9-.8-2.4-.4-.6-.9-.9-1.6-1.1-.7-.2-1.6-.3-2.8-.3v-2h14.4v2c-1.3 0-2.3.2-3 .3-.8.2-1.4.6-1.8 1.1-.4.5-.7 1.3-.9 2.3-.1 1-.2 2.3-.2 4v32.1h-3.1z"/><path fill="url(#--loaderb)" d="M101.5 1c3.1 0 6.1.6 8.8 1.7 2.7 1.1 5.1 2.6 7.1 4.6 2 1.9 3.6 4.2 4.7 6.8 1.1 2.6 1.7 5.4 1.7 8.5 0 2.9-.6 5.6-1.7 8.1-1.2 2.5-2.7 4.7-4.7 6.6-2 1.9-4.4 3.4-7.1 4.4-2.7 1.1-5.6 1.6-8.7 1.6-3.1 0-6-.5-8.7-1.6-2.7-1.1-5.1-2.6-7.1-4.4-2-1.9-3.6-4.1-4.7-6.6-1.2-2.5-1.7-5.3-1.7-8.1 0-3 .6-5.9 1.7-8.5 1.1-2.6 2.7-4.9 4.7-6.8 2-1.9 4.4-3.4 7.1-4.6 2.5-1.2 5.4-1.7 8.6-1.7zm0 39.4c2.4 0 4.5-.4 6.4-1.2 1.9-.8 3.5-2 4.8-3.5 1.3-1.5 2.4-3.4 3.1-5.6.7-2.2 1.1-4.7 1.1-7.4 0-2.9-.4-5.4-1.1-7.7-.7-2.3-1.7-4.3-3.1-5.9-1.3-1.6-2.9-2.9-4.8-3.8-1.9-.9-4-1.3-6.4-1.3-2.4 0-4.5.4-6.4 1.3-1.9.9-3.5 2.1-4.8 3.8-1.3 1.6-2.3 3.6-3.1 5.9-.7 2.3-1.1 4.9-1.1 7.7 0 2.7.4 5.2 1.1 7.4.7 2.2 1.7 4.1 3.1 5.6 1.3 1.5 2.9 2.7 4.8 3.5 1.9.8 4 1.2 6.4 1.2z"/><path fill="url(#--loaderc)" d="M190.9 11.7h-2.2c-.1-1.5-.4-2.8-.8-3.9-.4-1-1-1.8-1.7-2.4-.7-.6-1.7-1-2.8-1.3-1.1-.2-2.4-.4-4-.4-1.3 0-2.4 0-3.2.1-.8.1-1.4.2-1.8.3-.4.1-.7.3-.8.5-.1.2-.2.5-.2.8v28.7c0 1.1.1 2.1.2 2.9.2.8.5 1.5 1 2s1.2.9 2.1 1.2c.9.3 2.1.4 3.6.5v2H160v-2c1.5 0 2.7-.2 3.6-.5.9-.3 1.6-.7 2.1-1.2s.8-1.2 1-2c.2-.8.2-1.8.2-2.9V5.5c0-.3-.1-.6-.2-.8-.1-.2-.4-.4-.8-.5-.4-.1-.9-.2-1.6-.3-.7-.1-1.6-.1-2.7-.1-1.4 0-2.7.1-3.9.2-1.2.1-2.2.4-3.1.9-.9.5-1.6 1.3-2.1 2.4-.5 1.1-.8 2.6-.9 4.4h-2V1.5h40.5l.8 10.2z"/><g><path fill="url(#--loaderd)" d="M99.9 31l-1.6-.4 4.5-16.5c.1-.4.6-.7 1-.6.4.1.7.6.6 1L99.9 31z"/><path fill="url(#--loadere)" d="M80.7 98.9c-.4-.1-.7-.6-.6-1l4.5-16.5 1.6.4-4.5 16.5c-.1.5-.6.7-1 .6z"/></g><g fill="#98989A"><path d="M8.3 59.3c0-.1.1-.3.3-.3h.5c.1 0 .3.1.3.3v8.8c0 .1-.1.3-.3.3h-.5c-.1 0-.3-.1-.3-.3v-8.8zM14.8 59.3c0-.1.1-.3.2-.3h3c2.6 0 4.7 2.1 4.7 4.6 0 2.6-2.1 4.7-4.7 4.7h-3c-.1 0-.2-.1-.2-.3v-8.7zm3 8.1c2.2 0 3.8-1.6 3.8-3.8 0-2.2-1.6-3.7-3.8-3.7h-2v7.5h2zM27.4 59.3c0-.1.1-.3.3-.3h5.2c.1 0 .3.1.3.3v.4c0 .1-.1.3-.3.3h-4.5v3.2h3.8c.1 0 .3.1.3.3v.4c0 .1-.1.3-.3.3h-3.8v3.4h4.5c.1 0 .3.1.3.3v.4c0 .1-.1.3-.3.3h-5.2c-.1 0-.3-.1-.3-.3v-9zM37.9 59.1c0-.1.1-.2.3-.2h.3l6 7.5v-7.1c0-.1.1-.3.3-.3h.5c.1 0 .3.1.3.3v9c0 .1-.1.2-.3.2H45l-6.1-7.6v7.2c0 .1-.1.3-.3.3h-.5c-.1 0-.3-.1-.3-.3v-9zM52.2 59.9h-2.3c-.1 0-.3-.1-.3-.3v-.4c0-.1.1-.3.3-.3h5.6c.1 0 .3.1.3.3v.4c0 .1-.1.3-.3.3h-2.3v8.2c0 .1-.1.3-.3.3h-.5c-.1 0-.3-.1-.3-.3v-8.2zM59.9 59.3c0-.1.1-.3.3-.3h.5c.1 0 .3.1.3.3v8.8c0 .1-.1.3-.3.3h-.5c-.1 0-.3-.1-.3-.3v-8.8zM67.6 59.9h-2.3c-.1 0-.3-.1-.3-.3v-.4c0-.1.1-.3.3-.3H71c.1 0 .3.1.3.3v.4c0 .1-.1.3-.3.3h-2.3v8.2c0 .1-.1.3-.3.3h-.5c-.1 0-.3-.1-.3-.3v-8.2zM73.6 68l4-9c0-.1.1-.1.2-.1h.2c.1 0 .2.1.2.1l4 9c.1.2 0 .3-.2.3h-.5c-.1 0-.2-.1-.2-.1l-1-2.2h-4.7l-1 2.2c0 .1-.1.1-.2.1h-.5c-.3 0-.4-.1-.3-.3zm6.3-2.8c-.7-1.5-1.3-2.9-1.9-4.4h-.1L76 65.2h3.9zM76.6 57c-.1 0-.1-.2-.1-.3l.2-.5c.1-.1.3-.1.3 0l2 1.1c.1 0 .1.1.1.3l-.1.3c0 .1 0 .1-.2 0l-2.2-.9zM91.9 59.3c0-.1.1-.3.2-.3h3c2.6 0 4.7 2.1 4.7 4.6 0 2.6-2.1 4.7-4.7 4.7h-3c-.1 0-.2-.1-.2-.3v-8.7zm3 8.1c2.2 0 3.8-1.6 3.8-3.8 0-2.2-1.6-3.7-3.8-3.7h-2v7.5h2zM104.5 59.3c0-.1.1-.3.3-.3h5.2c.1 0 .3.1.3.3v.4c0 .1-.1.3-.3.3h-4.5v3.2h3.8c.1 0 .3.1.3.3v.4c0 .1-.1.3-.3.3h-3.8v3.4h4.5c.1 0 .3.1.3.3v.4c0 .1-.1.3-.3.3h-5.2c-.1 0-.3-.1-.3-.3v-9zM119.2 58.9c1.3 0 2.3.5 3.2 1.2.1.1.1.3 0 .4l-.4.4c-.1.1-.2.1-.3 0-.7-.6-1.6-1-2.5-1-2.1 0-3.7 1.8-3.7 3.8 0 2.1 1.6 3.8 3.7 3.8 1.5 0 2.4-.6 2.4-.6V65H120c-.1 0-.3-.1-.3-.2v-.5c0-.1.1-.3.3-.3h2.3c.1 0 .2.1.2.3v3c0 .1-.1.2-.1.2s-1.4.9-3.3.9c-2.7 0-4.8-2.1-4.8-4.8.1-2.6 2.2-4.7 4.9-4.7zM127.5 59.3c0-.1.1-.3.3-.3h.5c.1 0 .3.1.3.3v8.2h3.8c.1 0 .3.1.3.3v.4c0 .1-.1.3-.3.3h-4.6c-.1 0-.3-.1-.3-.3v-8.9zM136.7 59.3c0-.1.1-.3.3-.3h.5c.1 0 .3.1.3.3v8.8c0 .1-.1.3-.3.3h-.5c-.1 0-.3-.1-.3-.3v-8.8zM148.1 66.9c.1-.1.1-.2.2-.3.1-.2.3-.3.5-.1.1.1 1.1 1 2.3 1 1.1 0 1.8-.7 1.8-1.5 0-.9-.8-1.5-2.3-2.1-1.5-.6-2.3-1.2-2.3-2.8 0-.9.7-2.4 2.8-2.4 1.3 0 2.3.7 2.3.7.1 0 .2.2.1.5-.1.1-.1.2-.2.3-.1.2-.3.2-.5.1-.1-.1-.9-.6-1.7-.6-1.4 0-1.8.9-1.8 1.5 0 .9.7 1.4 1.8 1.9 1.8.7 3 1.4 3 3 0 1.4-1.3 2.4-2.9 2.4-1.6 0-2.6-.9-2.8-1.1-.3-.1-.5-.2-.3-.5zM158.4 59.3c0-.1.1-.3.3-.3h2.9c1.6 0 3 1.3 3 2.9 0 1.7-1.3 3-3 3h-2.2V68c0 .1-.1.3-.3.3h-.5c-.1 0-.3-.1-.3-.3v-8.7zm3.2 4.7c1.1 0 2-.9 2-2s-.9-1.9-2-1.9h-2.1V64h2.1zM167.4 68l4-9c0-.1.1-.1.2-.1h.1c.1 0 .2.1.2.1l4 9c.1.2 0 .3-.2.3h-.5c-.1 0-.2-.1-.2-.1l-1-2.2h-4.7l-1 2.2c0 .1-.1.1-.2.1h-.5c-.2 0-.3-.1-.2-.3zm6.3-2.8c-.7-1.5-1.3-2.9-1.9-4.4h-.1l-1.9 4.4h3.9zM179.2 67.8L184 60h-4.2c-.1 0-.3-.1-.3-.3v-.4c0-.1.1-.3.3-.3h5.4c.1 0 .3.1.3.3v.2l-4.9 7.9h4.4c.1 0 .3.1.3.3v.4c0 .1-.1.3-.3.3h-5.5c-.1 0-.3-.1-.3-.3v-.3zM189.9 59.3c0-.1.1-.3.3-.3h.5c.1 0 .3.1.3.3v8.8c0 .1-.1.3-.3.3h-.5c-.1 0-.3-.1-.3-.3v-8.8z"/></g></symbol><symbol id="--logomark" viewBox="0 0 96.6 85.5"><path fill="url(#--logomarka)" d="M48.3 21.6c3.1 0 6.1.6 8.8 1.7 2.7 1.1 5.1 2.6 7.1 4.6 2 1.9 3.6 4.2 4.7 6.8 1.1 2.6 1.7 5.4 1.7 8.5 0 2.9-.6 5.6-1.7 8.1-1.2 2.5-2.7 4.7-4.7 6.6-2 1.9-4.4 3.4-7.1 4.4-2.7 1.1-5.6 1.6-8.7 1.6-3.1 0-6-.5-8.7-1.6-2.7-1.1-5.1-2.6-7.1-4.4-2-1.9-3.6-4.1-4.7-6.6-1.3-2.6-1.9-5.3-1.9-8.2 0-3 .6-5.9 1.7-8.5 1.1-2.6 2.7-4.9 4.7-6.8 2-1.9 4.4-3.4 7.1-4.6 2.7-1.1 5.6-1.6 8.8-1.6zm0 39.4c2.4 0 4.5-.4 6.4-1.2 1.9-.8 3.5-2 4.8-3.5 1.3-1.5 2.4-3.4 3.1-5.6.7-2.2 1.1-4.7 1.1-7.4 0-2.9-.4-5.4-1.1-7.7-.7-2.3-1.7-4.3-3.1-5.9-1.3-1.6-2.9-2.9-4.8-3.8-1.9-.9-4-1.3-6.4-1.3-2.4 0-4.5.4-6.4 1.3-1.9.9-3.5 2.1-4.8 3.8-1.3 1.6-2.3 3.6-3.1 5.9-.7 2.3-1.1 4.9-1.1 7.7 0 2.7.4 5.2 1.1 7.4.7 2.2 1.7 4.1 3.1 5.6 1.3 1.5 2.9 2.7 4.8 3.5 1.9.8 4 1.2 6.4 1.2z"/><path fill="url(#--logomarkb)" d="M46.7 51.6l-1.6-.4 4.5-16.5c.1-.4.6-.7 1-.6.4.1.7.6.6 1l-4.5 16.5z"/></symbol><symbol id="--logotype" viewBox="0 0 267 171"><path fill="#FFF" d="M76.9 78.9L51.4 45.3h-.2v22.9c0 1.8.1 3.2.2 4.2s.4 1.8.8 2.4c.4.6.9.9 1.6 1.1.7.2 1.6.3 2.8.3v2H42.1v-2c1.3 0 2.3-.2 3-.3.8-.2 1.4-.6 1.8-1.1s.7-1.3.9-2.3c.1-1 .2-2.3.2-4V46.8c0-1.5-.1-2.7-.2-3.7s-.4-1.8-.8-2.3c-.4-.6-.9-1-1.6-1.2s-1.6-.4-2.8-.5v-2h10.6l23.4 31.3h.3V47.2c0-1.8-.1-3.2-.2-4.2-.1-1.1-.4-1.9-.8-2.4-.4-.6-.9-.9-1.6-1.1-.7-.2-1.6-.3-2.8-.3v-2h14.4v2c-1.3 0-2.3.2-3 .3-.8.2-1.4.6-1.8 1.1s-.7 1.3-.9 2.3c-.1 1-.2 2.3-.2 4V79l-3.1-.1zM135.2 36.5c3.1 0 6.1.6 8.8 1.7 2.7 1.1 5.1 2.6 7.1 4.6 2 1.9 3.6 4.2 4.7 6.8 1.1 2.6 1.7 5.4 1.7 8.5 0 2.9-.6 5.6-1.7 8.1-1.2 2.5-2.7 4.7-4.7 6.6s-4.4 3.4-7.1 4.4c-2.7 1.1-5.6 1.6-8.7 1.6-3.1 0-6-.5-8.7-1.6s-5.1-2.6-7.1-4.4c-2-1.9-3.6-4.1-4.7-6.6-1.2-2.5-1.7-5.3-1.7-8.1 0-3 .6-5.9 1.7-8.5s2.7-4.9 4.7-6.8c2-1.9 4.4-3.4 7.1-4.6 2.5-1.1 5.5-1.7 8.6-1.7zm0 39.4c2.4 0 4.5-.4 6.4-1.2 1.9-.8 3.5-2 4.8-3.5s2.4-3.4 3.1-5.6c.7-2.2 1.1-4.7 1.1-7.4 0-2.9-.4-5.4-1.1-7.7-.7-2.3-1.7-4.3-3.1-5.9-1.3-1.6-2.9-2.9-4.8-3.8-1.9-.9-4-1.3-6.4-1.3s-4.5.4-6.4 1.3c-1.9.9-3.5 2.1-4.8 3.8-1.3 1.6-2.3 3.6-3.1 5.9-.7 2.3-1.1 4.9-1.1 7.7 0 2.7.4 5.2 1.1 7.4.7 2.2 1.7 4.1 3.1 5.6 1.3 1.5 2.9 2.7 4.8 3.5 2 .8 4.1 1.2 6.4 1.2zM224.8 47.3h-2.2c-.1-1.5-.4-2.8-.8-3.9-.4-1-1-1.8-1.7-2.4-.7-.6-1.7-1-2.8-1.3-1.1-.2-2.4-.4-4-.4-1.3 0-2.4 0-3.2.1s-1.4.2-1.8.3c-.4.1-.7.3-.8.5s-.2.5-.2.8v28.7c0 1.1.1 2.1.2 2.9.2.8.5 1.5 1 2s1.2.9 2.1 1.2c.9.3 2.1.4 3.6.5v2H194v-2c1.5 0 2.7-.2 3.6-.5.9-.3 1.6-.7 2.1-1.2s.8-1.2 1-2 .2-1.8.2-2.9V41c0-.3-.1-.6-.2-.8-.1-.2-.4-.4-.8-.5-.4-.1-.9-.2-1.6-.3-.7-.1-1.6-.1-2.7-.1-1.4 0-2.7.1-3.9.2-1.2.1-2.2.4-3.1.9-.9.5-1.6 1.3-2.1 2.4-.5 1.1-.8 2.6-.9 4.4h-2V37.1h40.5l.7 10.2z"/><g><path fill="#FFF" d="M133.8 66.6l-1.6-.4 4.5-16.5c.1-.4.6-.7 1-.6.4.1.7.6.6 1l-4.5 16.5zM114.4 134.5c-.4-.1-.7-.6-.6-1l4.5-16.5 1.6.4-4.5 16.5c-.1.4-.5.7-1 .6z"/></g><g fill="#FFF"><path d="M42.1 94.8c0-.1.1-.3.3-.3h.5c.1 0 .3.1.3.3v8.8c0 .1-.1.3-.3.3h-.5c-.1 0-.3-.1-.3-.3v-8.8zM48.5 94.8c0-.1.1-.3.2-.3h3c2.6 0 4.7 2.1 4.7 4.6 0 2.6-2.1 4.7-4.7 4.7h-3c-.1 0-.2-.1-.2-.3v-8.7zm3 8.2c2.2 0 3.8-1.6 3.8-3.8 0-2.2-1.6-3.7-3.8-3.7h-2v7.5h2zM61.1 94.8c0-.1.1-.3.3-.3h5.2c.1 0 .3.1.3.3v.4c0 .1-.1.3-.3.3h-4.5v3.2h3.8c.1 0 .3.1.3.3v.4c0 .1-.1.3-.3.3h-3.8v3.4h4.5c.1 0 .3.1.3.3v.4c0 .1-.1.3-.3.3h-5.2c-.1 0-.3-.1-.3-.3v-9zM71.8 94.7c0-.1.1-.2.3-.2h.3l6 7.5v-7.1c0-.1.1-.3.3-.3h.5c.1 0 .3.1.3.3v9c0 .1-.1.2-.3.2H79l-6.1-7.6v7.2c0 .1-.1.3-.3.3H72c-.1 0-.3-.1-.3-.3v-9h.1zM86 95.5h-2.3c-.1 0-.3-.1-.3-.3v-.4c0-.1.1-.3.3-.3h5.6c.1 0 .3.1.3.3v.4c0 .1-.1.3-.3.3H87v8.2c0 .1-.1.3-.3.3h-.5c-.1 0-.3-.1-.3-.3v-8.2h.1zM93.8 94.8c0-.1.1-.3.3-.3h.5c.1 0 .3.1.3.3v8.8c0 .1-.1.3-.3.3H94c-.1 0-.3-.1-.3-.3v-8.8h.1zM101.4 95.5h-2.3c-.1 0-.3-.1-.3-.3v-.4c0-.1.1-.3.3-.3h5.6c.1 0 .3.1.3.3v.4c0 .1-.1.3-.3.3h-2.3v8.2c0 .1-.1.3-.3.3h-.5c-.1 0-.3-.1-.3-.3v-8.2h.1zM107.3 103.6l4-9c0-.1.1-.1.2-.1h.1c.1 0 .2.1.2.1l4 9c.1.2 0 .3-.2.3h-.5c-.1 0-.2-.1-.2-.1l-1-2.2h-4.7l-1 2.2c0 .1-.1.1-.2.1h-.5c-.2 0-.3-.2-.2-.3zm6.3-2.9c-.7-1.5-1.3-2.9-1.9-4.4h-.1l-1.9 4.4h3.9zm-3.2-8.1c-.1 0-.1-.2-.1-.3l.2-.5c.1-.1.3-.1.3 0l2 1.1c.1 0 .1.1.1.3l-.1.3c-.1.1-.1.1-.3 0l-2.1-.9zM125.8 94.8c0-.1.1-.3.2-.3h3c2.6 0 4.7 2.1 4.7 4.6 0 2.6-2.1 4.7-4.7 4.7h-3c-.1 0-.2-.1-.2-.3v-8.7zm3 8.2c2.2 0 3.8-1.6 3.8-3.8 0-2.2-1.6-3.7-3.8-3.7h-2v7.5h2zM138.3 94.8c0-.1.1-.3.3-.3h5.2c.1 0 .3.1.3.3v.4c0 .1-.1.3-.3.3h-4.5v3.2h3.8c.1 0 .3.1.3.3v.4c0 .1-.1.3-.3.3h-3.8v3.4h4.5c.1 0 .3.1.3.3v.4c0 .1-.1.3-.3.3h-5.2c-.1 0-.3-.1-.3-.3v-9zM152.9 94.4c1.3 0 2.3.5 3.2 1.2.1.1.1.3 0 .4l-.4.4c-.1.1-.2.1-.3 0-.7-.6-1.6-1-2.5-1-2.1 0-3.7 1.8-3.7 3.8 0 2.1 1.6 3.8 3.7 3.8 1.5 0 2.4-.6 2.4-.6v-1.9h-1.5c-.1 0-.3-.1-.3-.2v-.5c0-.1.1-.3.3-.3h2.3c.1 0 .2.1.2.3v3c0 .1-.1.2-.1.2s-1.4.9-3.3.9c-2.7 0-4.8-2.1-4.8-4.8 0-2.5 2.2-4.7 4.8-4.7zM161.2 94.8c0-.1.1-.3.3-.3h.5c.1 0 .3.1.3.3v8.2h3.8c.1 0 .3.1.3.3v.4c0 .1-.1.3-.3.3h-4.6c-.1 0-.3-.1-.3-.3v-8.9zM170.4 94.8c0-.1.1-.3.3-.3h.5c.1 0 .3.1.3.3v8.8c0 .1-.1.3-.3.3h-.5c-.1 0-.3-.1-.3-.3v-8.8zM181.8 102.5c.1-.1.1-.2.2-.3.1-.2.3-.3.5-.1.1.1 1.1 1 2.3 1 1.1 0 1.8-.7 1.8-1.5 0-.9-.8-1.5-2.3-2.1s-2.3-1.2-2.3-2.8c0-.9.7-2.4 2.8-2.4 1.3 0 2.3.7 2.3.7.1 0 .2.2.1.5-.1.1-.1.2-.2.3-.1.2-.3.2-.5.1-.1-.1-.9-.6-1.7-.6-1.4 0-1.8.9-1.8 1.5 0 .9.7 1.4 1.8 1.9 1.8.7 3 1.4 3 3 0 1.4-1.3 2.4-2.9 2.4-1.6 0-2.6-.9-2.8-1.1-.3-.1-.3-.2-.3-.5zM192.2 94.8c0-.1.1-.3.3-.3h2.9c1.6 0 3 1.3 3 2.9 0 1.7-1.3 3-3 3h-2.2v3.1c0 .1-.1.3-.3.3h-.5c-.1 0-.3-.1-.3-.3v-8.7h.1zm3.1 4.7c1.1 0 2-.9 2-2s-.9-1.9-2-1.9h-2.1v3.9h2.1zM201.1 103.6l4-9c0-.1.1-.1.2-.1h.1c.1 0 .2.1.2.1l4 9c.1.2 0 .3-.2.3h-.5c-.1 0-.2-.1-.2-.1l-1-2.2H203l-1 2.2c0 .1-.1.1-.2.1h-.5c-.2 0-.2-.2-.2-.3zm6.3-2.9c-.7-1.5-1.3-2.9-1.9-4.4h-.1l-1.9 4.4h3.9zM212.9 103.4l4.8-7.9h-4.2c-.1 0-.3-.1-.3-.3v-.4c0-.1.1-.3.3-.3h5.4c.1 0 .3.1.3.3v.2l-4.9 7.9h4.4c.1 0 .3.1.3.3v.4c0 .1-.1.3-.3.3h-5.5c-.1 0-.3-.1-.3-.3v-.2zM223.8 94.8c0-.1.1-.3.3-.3h.5c.1 0 .3.1.3.3v8.8c0 .1-.1.3-.3.3h-.6c-.1 0-.3-.1-.3-.3v-8.8h.1z"/></g></symbol></svg>