<?xml version="1.0" encoding="utf-8"?>
<!-- Generator: Adobe Illustrator 22.1.0, SVG Export Plug-In . SVG Version: 6.00 Build 0)  -->
<svg version="1.1" id="Livello_1" xmlns="http://www.w3.org/2000/svg" xmlns:xlink="http://www.w3.org/1999/xlink" x="0px" y="0px"
	 viewBox="0 0 96.6 85.5" style="enable-background:new 0 0 96.6 85.5;" xml:space="preserve">
<style type="text/css">
	.st0{fill:#FFFFFF;}
</style>
<g id="XMLID_1_">
	<g>
		<g id="XMLID_70_">
			<g id="XMLID_71_">
				<path id="XMLID_72_" class="st0" d="M48.3,21.6c3.1,0,6.1,0.6,8.8,1.7c2.7,1.1,5.1,2.6,7.1,4.6c2,1.9,3.6,4.2,4.7,6.8
					c1.1,2.6,1.7,5.4,1.7,8.5c0,2.9-0.6,5.6-1.7,8.1c-1.2,2.5-2.7,4.7-4.7,6.6c-2,1.9-4.4,3.4-7.1,4.4c-2.7,1.1-5.6,1.6-8.7,1.6
					c-3.1,0-6-0.5-8.7-1.6c-2.7-1.1-5.1-2.6-7.1-4.4c-2-1.9-3.6-4.1-4.7-6.6C26.6,48.7,26,46,26,43.1c0-3,0.6-5.9,1.7-8.5
					c1.1-2.6,2.7-4.9,4.7-6.8c2-1.9,4.4-3.4,7.1-4.6C42.2,22.1,45.1,21.6,48.3,21.6z M48.3,61c2.4,0,4.5-0.4,6.4-1.2
					c1.9-0.8,3.5-2,4.8-3.5c1.3-1.5,2.4-3.4,3.1-5.6c0.7-2.2,1.1-4.7,1.1-7.4c0-2.9-0.4-5.4-1.1-7.7c-0.7-2.3-1.7-4.3-3.1-5.9
					c-1.3-1.6-2.9-2.9-4.8-3.8c-1.9-0.9-4-1.3-6.4-1.3c-2.4,0-4.5,0.4-6.4,1.3c-1.9,0.9-3.5,2.1-4.8,3.8c-1.3,1.6-2.3,3.6-3.1,5.9
					c-0.7,2.3-1.1,4.9-1.1,7.7c0,2.7,0.4,5.2,1.1,7.4c0.7,2.2,1.7,4.1,3.1,5.6c1.3,1.5,2.9,2.7,4.8,3.5C43.8,60.6,45.9,61,48.3,61z"
					/>
			</g>
		</g>
		<g id="XMLID_67_">
			<g id="XMLID_68_">
				<path id="XMLID_69_" class="st0" d="M46.7,51.6l-1.6-0.4l4.5-16.5c0.1-0.4,0.6-0.7,1-0.6l0,0c0.4,0.1,0.7,0.6,0.6,1L46.7,51.6z"
					/>
			</g>
		</g>
	</g>
</g>
</svg>
