<?xml version="1.0" encoding="utf-8"?>
<!-- Generator: Adobe Illustrator 22.1.0, SVG Export Plug-In . SVG Version: 6.00 Build 0)  -->
<svg version="1.1" id="Livello_1" xmlns="http://www.w3.org/2000/svg" xmlns:xlink="http://www.w3.org/1999/xlink" x="0px" y="0px"
	 viewBox="0 0 49.2 70" style="enable-background:new 0 0 49.2 70;" xml:space="preserve">
<path fill="#F9F9F9" d="M47.3,63.1c-3.1,1.3-6.6,2-10.5,2s-7.4-0.7-10.5-2s-5.7-3.3-8-5.8s-3.8-5.6-5-9.3c-1.2-3.6-1.8-7.7-1.8-12.2
	c0-4.7,0.6-9,1.8-12.8s2.8-7.1,5-9.8s4.8-4.7,8-6.1S33,4.9,36.8,4.9c3.9,0,7.4,0.7,10.5,2.1C47.9,7.4,48.5,7.7,49,8v-6
	C45.2,0.6,41,0,36.7,0c-5.1,0-10,0.9-14.5,2.7c-4.4,1.8-8.4,4.3-11.7,7.6s-5.8,7-7.8,11.2C0.9,25.9,0,30.5,0,35.6
	c0,4.7,1,9.3,2.9,13.4c1.9,4.2,4.5,7.9,7.9,10.9c3.3,3.1,7.2,5.5,11.7,7.4c4.4,1.8,9.3,2.7,14.4,2.7c4.3,0,8.4-0.6,12.3-1.9v-5.8
	C48.5,62.5,47.9,62.8,47.3,63.1z"/>
<path fill="#F9F9F9" d="M40.6,20.8c-0.7-0.2-1.4,0.2-1.6,0.9L31.7,49l2.6,0.7l7.4-27.3C41.7,21.7,41.3,21,40.6,20.8z"/>
</svg>
