<?xml version="1.0" encoding="utf-8"?>
<!-- Generator: Adobe Illustrator 22.1.0, SVG Export Plug-In . SVG Version: 6.00 Build 0)  -->
<svg version="1.1" id="Livello_1" xmlns="http://www.w3.org/2000/svg" xmlns:xlink="http://www.w3.org/1999/xlink" x="0px" y="0px"
	 viewBox="0 0 267 171" style="enable-background:new 0 0 267 171;" xml:space="preserve">
<g id="XMLID_81_">
	<g id="XMLID_141_">
		<g id="XMLID_142_">
			<g>
				<g id="XMLID_181_">
					<g id="XMLID_189_">
						<path id="XMLID_190_" fill="#FFFFFF" d="M76.9,78.9L51.4,45.3h-0.2v22.9c0,1.8,0.1,3.2,0.2,4.2c0.1,1,0.4,1.8,0.8,2.4
							c0.4,0.6,0.9,0.9,1.6,1.1c0.7,0.2,1.6,0.3,2.8,0.3v2H42.1v-2c1.3,0,2.3-0.2,3-0.3c0.8-0.2,1.4-0.6,1.8-1.1s0.7-1.3,0.9-2.3
							c0.1-1,0.2-2.3,0.2-4V46.8c0-1.5-0.1-2.7-0.2-3.7s-0.4-1.8-0.8-2.3c-0.4-0.6-0.9-1-1.6-1.2s-1.6-0.4-2.8-0.5v-2h10.6
							l23.4,31.3h0.3V47.2c0-1.8-0.1-3.2-0.2-4.2c-0.1-1.1-0.4-1.9-0.8-2.4c-0.4-0.6-0.9-0.9-1.6-1.1c-0.7-0.2-1.6-0.3-2.8-0.3v-2
							h14.4v2c-1.3,0-2.3,0.2-3,0.3c-0.8,0.2-1.4,0.6-1.8,1.1s-0.7,1.3-0.9,2.3c-0.1,1-0.2,2.3-0.2,4V79L76.9,78.9L76.9,78.9z"/>
					</g>
					<g id="XMLID_185_">
						<path id="XMLID_186_" fill="#FFFFFF" d="M135.2,36.5c3.1,0,6.1,0.6,8.8,1.7c2.7,1.1,5.1,2.6,7.1,4.6c2,1.9,3.6,4.2,4.7,6.8
							c1.1,2.6,1.7,5.4,1.7,8.5c0,2.9-0.6,5.6-1.7,8.1c-1.2,2.5-2.7,4.7-4.7,6.6s-4.4,3.4-7.1,4.4c-2.7,1.1-5.6,1.6-8.7,1.6
							c-3.1,0-6-0.5-8.7-1.6s-5.1-2.6-7.1-4.4c-2-1.9-3.6-4.1-4.7-6.6c-1.2-2.5-1.7-5.3-1.7-8.1c0-3,0.6-5.9,1.7-8.5
							s2.7-4.9,4.7-6.8c2-1.9,4.4-3.4,7.1-4.6C129.1,37.1,132.1,36.5,135.2,36.5z M135.2,75.9c2.4,0,4.5-0.4,6.4-1.2
							c1.9-0.8,3.5-2,4.8-3.5s2.4-3.4,3.1-5.6c0.7-2.2,1.1-4.7,1.1-7.4c0-2.9-0.4-5.4-1.1-7.7c-0.7-2.3-1.7-4.3-3.1-5.9
							c-1.3-1.6-2.9-2.9-4.8-3.8c-1.9-0.9-4-1.3-6.4-1.3s-4.5,0.4-6.4,1.3c-1.9,0.9-3.5,2.1-4.8,3.8c-1.3,1.6-2.3,3.6-3.1,5.9
							c-0.7,2.3-1.1,4.9-1.1,7.7c0,2.7,0.4,5.2,1.1,7.4c0.7,2.2,1.7,4.1,3.1,5.6c1.3,1.5,2.9,2.7,4.8,3.5
							C130.8,75.5,132.9,75.9,135.2,75.9z"/>
					</g>
					<g id="XMLID_182_">
						<path id="XMLID_183_" fill="#FFFFFF" d="M224.8,47.3h-2.2c-0.1-1.5-0.4-2.8-0.8-3.9c-0.4-1-1-1.8-1.7-2.4c-0.7-0.6-1.7-1-2.8-1.3
							c-1.1-0.2-2.4-0.4-4-0.4c-1.3,0-2.4,0-3.2,0.1s-1.4,0.2-1.8,0.3c-0.4,0.1-0.7,0.3-0.8,0.5s-0.2,0.5-0.2,0.8v28.7
							c0,1.1,0.1,2.1,0.2,2.9c0.2,0.8,0.5,1.5,1,2s1.2,0.9,2.1,1.2c0.9,0.3,2.1,0.4,3.6,0.5v2h-20.2v-2c1.5,0,2.7-0.2,3.6-0.5
							c0.9-0.3,1.6-0.7,2.1-1.2s0.8-1.2,1-2s0.2-1.8,0.2-2.9V41c0-0.3-0.1-0.6-0.2-0.8c-0.1-0.2-0.4-0.4-0.8-0.5
							c-0.4-0.1-0.9-0.2-1.6-0.3c-0.7-0.1-1.6-0.1-2.7-0.1c-1.4,0-2.7,0.1-3.9,0.2c-1.2,0.1-2.2,0.4-3.1,0.9
							c-0.9,0.5-1.6,1.3-2.1,2.4c-0.5,1.1-0.8,2.6-0.9,4.4h-2V37.1h40.5L224.8,47.3z"/>
					</g>
				</g>
				<g id="XMLID_160_">
					<g id="XMLID_179_">
						<path id="XMLID_180_" fill="#FFFFFF" d="M133.8,66.6l-1.6-0.4l4.5-16.5c0.1-0.4,0.6-0.7,1-0.6l0,0c0.4,0.1,0.7,0.6,0.6,1
							L133.8,66.6z"/>
					</g>
					<g id="XMLID_177_">
						<path id="XMLID_178_" fill="#FFFFFF" d="M114.4,134.5L114.4,134.5c-0.4-0.1-0.7-0.6-0.6-1l4.5-16.5l1.6,0.4l-4.5,16.5
							C115.3,134.3,114.9,134.6,114.4,134.5z"/>
					</g>
				</g>
			</g>
		</g>
	</g>
	<g id="XMLID_82_">
		<path id="XMLID_139_" fill="#FFFFFF" d="M42.1,94.8c0-0.1,0.1-0.3,0.3-0.3h0.5c0.1,0,0.3,0.1,0.3,0.3v8.8c0,0.1-0.1,0.3-0.3,0.3h-0.5
			c-0.1,0-0.3-0.1-0.3-0.3V94.8z"/>
		<path id="XMLID_136_" fill="#FFFFFF" d="M48.5,94.8c0-0.1,0.1-0.3,0.2-0.3h3c2.6,0,4.7,2.1,4.7,4.6c0,2.6-2.1,4.7-4.7,4.7h-3
			c-0.1,0-0.2-0.1-0.2-0.3V94.8z M51.5,103c2.2,0,3.8-1.6,3.8-3.8c0-2.2-1.6-3.7-3.8-3.7h-2v7.5H51.5z"/>
		<path id="XMLID_134_" fill="#FFFFFF" d="M61.1,94.8c0-0.1,0.1-0.3,0.3-0.3h5.2c0.1,0,0.3,0.1,0.3,0.3v0.4c0,0.1-0.1,0.3-0.3,0.3h-4.5
			v3.2h3.8c0.1,0,0.3,0.1,0.3,0.3v0.4c0,0.1-0.1,0.3-0.3,0.3h-3.8v3.4h4.5c0.1,0,0.3,0.1,0.3,0.3v0.4c0,0.1-0.1,0.3-0.3,0.3h-5.2
			c-0.1,0-0.3-0.1-0.3-0.3C61.1,103.8,61.1,94.8,61.1,94.8z"/>
		<path id="XMLID_132_" fill="#FFFFFF" d="M71.8,94.7c0-0.1,0.1-0.2,0.3-0.2h0.3l6,7.5l0,0v-7.1c0-0.1,0.1-0.3,0.3-0.3h0.5
			c0.1,0,0.3,0.1,0.3,0.3v9c0,0.1-0.1,0.2-0.3,0.2H79l-6.1-7.6l0,0v7.2c0,0.1-0.1,0.3-0.3,0.3h-0.6c-0.1,0-0.3-0.1-0.3-0.3v-9H71.8z
			"/>
		<path id="XMLID_114_" fill="#FFFFFF" d="M86,95.5h-2.3c-0.1,0-0.3-0.1-0.3-0.3v-0.4c0-0.1,0.1-0.3,0.3-0.3h5.6c0.1,0,0.3,0.1,0.3,0.3
			v0.4c0,0.1-0.1,0.3-0.3,0.3H87v8.2c0,0.1-0.1,0.3-0.3,0.3h-0.5c-0.1,0-0.3-0.1-0.3-0.3v-8.2H86z"/>
		<path id="XMLID_112_" fill="#FFFFFF" d="M93.8,94.8c0-0.1,0.1-0.3,0.3-0.3h0.5c0.1,0,0.3,0.1,0.3,0.3v8.8c0,0.1-0.1,0.3-0.3,0.3h-0.6
			c-0.1,0-0.3-0.1-0.3-0.3v-8.8H93.8z"/>
		<path id="XMLID_110_" fill="#FFFFFF" d="M101.4,95.5h-2.3c-0.1,0-0.3-0.1-0.3-0.3v-0.4c0-0.1,0.1-0.3,0.3-0.3h5.6
			c0.1,0,0.3,0.1,0.3,0.3v0.4c0,0.1-0.1,0.3-0.3,0.3h-2.3v8.2c0,0.1-0.1,0.3-0.3,0.3h-0.5c-0.1,0-0.3-0.1-0.3-0.3v-8.2H101.4z"/>
		<path id="XMLID_106_" fill="#FFFFFF" d="M107.3,103.6l4-9c0-0.1,0.1-0.1,0.2-0.1h0.1c0.1,0,0.2,0.1,0.2,0.1l4,9
			c0.1,0.2,0,0.3-0.2,0.3h-0.5c-0.1,0-0.2-0.1-0.2-0.1l-1-2.2h-4.7l-1,2.2c0,0.1-0.1,0.1-0.2,0.1h-0.5
			C107.3,103.9,107.2,103.7,107.3,103.6z M113.6,100.7c-0.7-1.5-1.3-2.9-1.9-4.4h-0.1l-1.9,4.4H113.6z M110.4,92.6
			c-0.1,0-0.1-0.2-0.1-0.3l0.2-0.5c0.1-0.1,0.3-0.1,0.3,0l2,1.1c0.1,0,0.1,0.1,0.1,0.3l-0.1,0.3c-0.1,0.1-0.1,0.1-0.3,0L110.4,92.6z
			"/>
		<path id="XMLID_103_" fill="#FFFFFF" d="M125.8,94.8c0-0.1,0.1-0.3,0.2-0.3h3c2.6,0,4.7,2.1,4.7,4.6c0,2.6-2.1,4.7-4.7,4.7h-3
			c-0.1,0-0.2-0.1-0.2-0.3V94.8z M128.8,103c2.2,0,3.8-1.6,3.8-3.8c0-2.2-1.6-3.7-3.8-3.7h-2v7.5H128.8z"/>
		<path id="XMLID_101_" fill="#FFFFFF" d="M138.3,94.8c0-0.1,0.1-0.3,0.3-0.3h5.2c0.1,0,0.3,0.1,0.3,0.3v0.4c0,0.1-0.1,0.3-0.3,0.3
			h-4.5v3.2h3.8c0.1,0,0.3,0.1,0.3,0.3v0.4c0,0.1-0.1,0.3-0.3,0.3h-3.8v3.4h4.5c0.1,0,0.3,0.1,0.3,0.3v0.4c0,0.1-0.1,0.3-0.3,0.3
			h-5.2c-0.1,0-0.3-0.1-0.3-0.3V94.8z"/>
		<path id="XMLID_99_" fill="#FFFFFF" d="M152.9,94.4c1.3,0,2.3,0.5,3.2,1.2c0.1,0.1,0.1,0.3,0,0.4s-0.3,0.3-0.4,0.4
			c-0.1,0.1-0.2,0.1-0.3,0c-0.7-0.6-1.6-1-2.5-1c-2.1,0-3.7,1.8-3.7,3.8c0,2.1,1.6,3.8,3.7,3.8c1.5,0,2.4-0.6,2.4-0.6v-1.9h-1.5
			c-0.1,0-0.3-0.1-0.3-0.2v-0.5c0-0.1,0.1-0.3,0.3-0.3h2.3c0.1,0,0.2,0.1,0.2,0.3v3c0,0.1-0.1,0.2-0.1,0.2s-1.4,0.9-3.3,0.9
			c-2.7,0-4.8-2.1-4.8-4.8C148.1,96.6,150.3,94.4,152.9,94.4z"/>
		<path id="XMLID_97_" fill="#FFFFFF" d="M161.2,94.8c0-0.1,0.1-0.3,0.3-0.3h0.5c0.1,0,0.3,0.1,0.3,0.3v8.2h3.8c0.1,0,0.3,0.1,0.3,0.3
			v0.4c0,0.1-0.1,0.3-0.3,0.3h-4.6c-0.1,0-0.3-0.1-0.3-0.3V94.8z"/>
		<path id="XMLID_95_" fill="#FFFFFF" d="M170.4,94.8c0-0.1,0.1-0.3,0.3-0.3h0.5c0.1,0,0.3,0.1,0.3,0.3v8.8c0,0.1-0.1,0.3-0.3,0.3h-0.5
			c-0.1,0-0.3-0.1-0.3-0.3V94.8z"/>
		<path id="XMLID_93_" fill="#FFFFFF" d="M181.8,102.5c0.1-0.1,0.1-0.2,0.2-0.3c0.1-0.2,0.3-0.3,0.5-0.1c0.1,0.1,1.1,1,2.3,1
			c1.1,0,1.8-0.7,1.8-1.5c0-0.9-0.8-1.5-2.3-2.1s-2.3-1.2-2.3-2.8c0-0.9,0.7-2.4,2.8-2.4c1.3,0,2.3,0.7,2.3,0.7
			c0.1,0,0.2,0.2,0.1,0.5c-0.1,0.1-0.1,0.2-0.2,0.3c-0.1,0.2-0.3,0.2-0.5,0.1c-0.1-0.1-0.9-0.6-1.7-0.6c-1.4,0-1.8,0.9-1.8,1.5
			c0,0.9,0.7,1.4,1.8,1.9c1.8,0.7,3,1.4,3,3c0,1.4-1.3,2.4-2.9,2.4c-1.6,0-2.6-0.9-2.8-1.1C181.8,102.9,181.8,102.8,181.8,102.5z"/>
		<path id="XMLID_90_" fill="#FFFFFF" d="M192.2,94.8c0-0.1,0.1-0.3,0.3-0.3h2.9c1.6,0,3,1.3,3,2.9c0,1.7-1.3,3-3,3h-2.2v3.1
			c0,0.1-0.1,0.3-0.3,0.3h-0.5c-0.1,0-0.3-0.1-0.3-0.3v-8.7H192.2z M195.3,99.5c1.1,0,2-0.9,2-2s-0.9-1.9-2-1.9h-2.1v3.9H195.3z"/>
		<path id="XMLID_87_" fill="#FFFFFF" d="M201.1,103.6l4-9c0-0.1,0.1-0.1,0.2-0.1h0.1c0.1,0,0.2,0.1,0.2,0.1l4,9c0.1,0.2,0,0.3-0.2,0.3
			h-0.5c-0.1,0-0.2-0.1-0.2-0.1l-1-2.2h-4.7l-1,2.2c0,0.1-0.1,0.1-0.2,0.1h-0.5C201.1,103.9,201.1,103.7,201.1,103.6z M207.4,100.7
			c-0.7-1.5-1.3-2.9-1.9-4.4h-0.1l-1.9,4.4H207.4z"/>
		<path id="XMLID_85_" fill="#FFFFFF" d="M212.9,103.4l4.8-7.9l0,0h-4.2c-0.1,0-0.3-0.1-0.3-0.3v-0.4c0-0.1,0.1-0.3,0.3-0.3h5.4
			c0.1,0,0.3,0.1,0.3,0.3V95l-4.9,7.9l0,0h4.4c0.1,0,0.3,0.1,0.3,0.3v0.4c0,0.1-0.1,0.3-0.3,0.3h-5.5c-0.1,0-0.3-0.1-0.3-0.3V103.4z
			"/>
		<path id="XMLID_83_" fill="#FFFFFF" d="M223.8,94.8c0-0.1,0.1-0.3,0.3-0.3h0.5c0.1,0,0.3,0.1,0.3,0.3v8.8c0,0.1-0.1,0.3-0.3,0.3h-0.6
			c-0.1,0-0.3-0.1-0.3-0.3v-8.8H223.8z"/>
	</g>
</g>
</svg>
