<?xml version="1.0" encoding="utf-8"?>
<!-- Generator: Adobe Illustrator 22.1.0, SVG Export Plug-In . SVG Version: 6.00 Build 0)  -->
<svg version="1.1" id="Livello_1" xmlns="http://www.w3.org/2000/svg" xmlns:xlink="http://www.w3.org/1999/xlink" x="0px" y="0px"
     viewBox="0 0 200 100" style="enable-background:new 0 0 200 100;" xml:space="preserve">
<defs>
<linearGradient id="loader-gradient-a" gradientUnits="userSpaceOnUse" x1="5.8359" y1="44.1833" x2="135.9983" y2="-85.979">
<stop offset="0" style="stop-color:#2852A0" />

<stop offset="1" style="stop-color:#0B2D55" />

        </linearGradient>
<linearGradient id="loader-gradient-b" gradientUnits="userSpaceOnUse" x1="42.6479" y1="80.9956" x2="172.8102" y2="-49.1667">
<stop offset="0" style="stop-color:#2852A0" />

<stop offset="1" style="stop-color:#0B2D55" />

        </linearGradient>
<linearGradient id="loader-gradient-c" gradientUnits="userSpaceOnUse" x1="74.4829" y1="112.8302" x2="204.6454" y2="-17.3322">
<stop offset="0" style="stop-color:#2852A0" />

<stop offset="1" style="stop-color:#0B2D55" />

        </linearGradient>
<linearGradient id="loader-gradient-d" gradientUnits="userSpaceOnUse" x1="42.7298" y1="81.0775" x2="172.8924" y2="-49.0851">
<stop offset="0" style="stop-color:#2852A0" />

<stop offset="1" style="stop-color:#0B2D55" />

        </linearGradient>
<linearGradient id="loader-gradient-e" gradientUnits="userSpaceOnUse" x1="67.3491" y1="105.6964" x2="197.5113" y2="-24.4658">
<stop offset="0" style="stop-color:#2852A0" />

<stop offset="1" style="stop-color:#0B2D55" />

        </linearGradient>
    </defs>
<g id="XMLID_48_">
<g id="XMLID_365_">
<g id="XMLID_366_">
<g>
<g id="XMLID_120_">
<g id="XMLID_128_">
<path id="XMLID_129_" fill="url(#loader-gradient-a)" d="M43.1,43.3L17.7,9.8h-0.2v22.9c0,1.8,0.1,3.2,0.2,4.2c0.1,1,0.4,1.8,0.8,2.4
							c0.4,0.6,0.9,0.9,1.6,1.1c0.7,0.2,1.6,0.3,2.8,0.3v2H8.3v-2c1.3,0,2.3-0.2,3-0.3c0.8-0.2,1.4-0.6,1.8-1.1
							c0.4-0.5,0.7-1.3,0.9-2.3c0.1-1,0.2-2.3,0.2-4V11.3c0-1.5-0.1-2.7-0.2-3.7c-0.1-1-0.4-1.8-0.8-2.3c-0.4-0.6-0.9-1-1.6-1.2
							C11,3.8,10,3.6,8.9,3.5v-2h10.6l23.4,31.3h0.2V11.6c0-1.8-0.1-3.2-0.2-4.2c-0.1-1.1-0.4-1.9-0.8-2.4c-0.4-0.6-0.9-0.9-1.6-1.1
							c-0.7-0.2-1.6-0.3-2.8-0.3v-2h14.4v2c-1.3,0-2.3,0.2-3,0.3c-0.8,0.2-1.4,0.6-1.8,1.1c-0.4,0.5-0.7,1.3-0.9,2.3
							c-0.1,1-0.2,2.3-0.2,4v32.1H43.1z" />

					</g>
<g id="XMLID_124_">
<path id="XMLID_125_" fill="url(#loader-gradient-b)" d="M101.5,1c3.1,0,6.1,0.6,8.8,1.7c2.7,1.1,5.1,2.6,7.1,4.6c2,1.9,3.6,4.2,4.7,6.8
							c1.1,2.6,1.7,5.4,1.7,8.5c0,2.9-0.6,5.6-1.7,8.1c-1.2,2.5-2.7,4.7-4.7,6.6c-2,1.9-4.4,3.4-7.1,4.4c-2.7,1.1-5.6,1.6-8.7,1.6
							c-3.1,0-6-0.5-8.7-1.6c-2.7-1.1-5.1-2.6-7.1-4.4c-2-1.9-3.6-4.1-4.7-6.6c-1.2-2.5-1.7-5.3-1.7-8.1c0-3,0.6-5.9,1.7-8.5
							c1.1-2.6,2.7-4.9,4.7-6.8c2-1.9,4.4-3.4,7.1-4.6C95.4,1.5,98.3,1,101.5,1z M101.5,40.4c2.4,0,4.5-0.4,6.4-1.2
							c1.9-0.8,3.5-2,4.8-3.5c1.3-1.5,2.4-3.4,3.1-5.6c0.7-2.2,1.1-4.7,1.1-7.4c0-2.9-0.4-5.4-1.1-7.7c-0.7-2.3-1.7-4.3-3.1-5.9
							c-1.3-1.6-2.9-2.9-4.8-3.8c-1.9-0.9-4-1.3-6.4-1.3c-2.4,0-4.5,0.4-6.4,1.3c-1.9,0.9-3.5,2.1-4.8,3.8c-1.3,1.6-2.3,3.6-3.1,5.9
							c-0.7,2.3-1.1,4.9-1.1,7.7c0,2.7,0.4,5.2,1.1,7.4c0.7,2.2,1.7,4.1,3.1,5.6c1.3,1.5,2.9,2.7,4.8,3.5
							C97,40,99.1,40.4,101.5,40.4z" />

					</g>
<g id="XMLID_121_">
<path id="XMLID_122_" fill="url(#loader-gradient-c)" d="M190.9,11.7h-2.2c-0.1-1.5-0.4-2.8-0.8-3.9c-0.4-1-1-1.8-1.7-2.4c-0.7-0.6-1.7-1-2.8-1.3
							c-1.1-0.2-2.4-0.4-4-0.4c-1.3,0-2.4,0-3.2,0.1c-0.8,0.1-1.4,0.2-1.8,0.3c-0.4,0.1-0.7,0.3-0.8,0.5c-0.1,0.2-0.2,0.5-0.2,0.8
							v28.7c0,1.1,0.1,2.1,0.2,2.9c0.2,0.8,0.5,1.5,1,2c0.5,0.5,1.2,0.9,2.1,1.2c0.9,0.3,2.1,0.4,3.6,0.5v2h-20.3v-2
							c1.5,0,2.7-0.2,3.6-0.5c0.9-0.3,1.6-0.7,2.1-1.2c0.5-0.5,0.8-1.2,1-2c0.2-0.8,0.2-1.8,0.2-2.9V5.5c0-0.3-0.1-0.6-0.2-0.8
							c-0.1-0.2-0.4-0.4-0.8-0.5c-0.4-0.1-0.9-0.2-1.6-0.3c-0.7-0.1-1.6-0.1-2.7-0.1c-1.4,0-2.7,0.1-3.9,0.2
							c-1.2,0.1-2.2,0.4-3.1,0.9c-0.9,0.5-1.6,1.3-2.1,2.4c-0.5,1.1-0.8,2.6-0.9,4.4h-2V1.5h40.5L190.9,11.7z" />

					</g>
				</g>
<g id="XMLID_115_">
<g id="XMLID_118_">
<path id="XMLID_119_" fill="url(#loader-gradient-d)" d="M99.9,31l-1.6-0.4l4.5-16.5c0.1-0.4,0.6-0.7,1-0.6l0,0c0.4,0.1,0.7,0.6,0.6,1L99.9,31z" />

					</g>
<g id="XMLID_116_">
<path id="XMLID_117_" fill="url(#loader-gradient-e)" d="M80.7,98.9L80.7,98.9c-0.4-0.1-0.7-0.6-0.6-1l4.5-16.5l1.6,0.4l-4.5,16.5
							C81.6,98.8,81.1,99,80.7,98.9z" />

					</g>
				</g>
			</g>
		</g>
	</g>
<g id="XMLID_204_">
<path id="XMLID_360_" fill="#98989A" d="M8.3,59.3c0-0.1,0.1-0.3,0.3-0.3h0.5c0.1,0,0.3,0.1,0.3,0.3v8.8c0,0.1-0.1,0.3-0.3,0.3H8.6
			c-0.1,0-0.3-0.1-0.3-0.3V59.3z" />

<path id="XMLID_357_" fill="#98989A" d="M14.8,59.3c0-0.1,0.1-0.3,0.2-0.3h3c2.6,0,4.7,2.1,4.7,4.6c0,2.6-2.1,4.7-4.7,4.7h-3
			c-0.1,0-0.2-0.1-0.2-0.3V59.3z M17.8,67.4c2.2,0,3.8-1.6,3.8-3.8c0-2.2-1.6-3.7-3.8-3.7h-2v7.5H17.8z" />

<path id="XMLID_355_" fill="#98989A" d="M27.4,59.3c0-0.1,0.1-0.3,0.3-0.3h5.2c0.1,0,0.3,0.1,0.3,0.3v0.4c0,0.1-0.1,0.3-0.3,0.3h-4.5
			v3.2h3.8c0.1,0,0.3,0.1,0.3,0.3v0.4c0,0.1-0.1,0.3-0.3,0.3h-3.8v3.4h4.5c0.1,0,0.3,0.1,0.3,0.3v0.4c0,0.1-0.1,0.3-0.3,0.3h-5.2
			c-0.1,0-0.3-0.1-0.3-0.3V59.3z" />

<path id="XMLID_353_" fill="#98989A" d="M37.9,59.1c0-0.1,0.1-0.2,0.3-0.2h0.3l6,7.5c0,0,0,0,0,0v-7.1c0-0.1,0.1-0.3,0.3-0.3h0.5
			c0.1,0,0.3,0.1,0.3,0.3v9c0,0.1-0.1,0.2-0.3,0.2H45l-6.1-7.6h0v7.2c0,0.1-0.1,0.3-0.3,0.3h-0.5c-0.1,0-0.3-0.1-0.3-0.3V59.1z" />

<path id="XMLID_351_" fill="#98989A" d="M52.2,59.9h-2.3c-0.1,0-0.3-0.1-0.3-0.3v-0.4c0-0.1,0.1-0.3,0.3-0.3h5.6
			c0.1,0,0.3,0.1,0.3,0.3v0.4c0,0.1-0.1,0.3-0.3,0.3h-2.3v8.2c0,0.1-0.1,0.3-0.3,0.3h-0.5c-0.1,0-0.3-0.1-0.3-0.3V59.9z" />

<path id="XMLID_348_" fill="#98989A" d="M59.9,59.3c0-0.1,0.1-0.3,0.3-0.3h0.5c0.1,0,0.3,0.1,0.3,0.3v8.8c0,0.1-0.1,0.3-0.3,0.3h-0.5
			c-0.1,0-0.3-0.1-0.3-0.3V59.3z" />

<path id="XMLID_346_" fill="#98989A" d="M67.6,59.9h-2.3c-0.1,0-0.3-0.1-0.3-0.3v-0.4c0-0.1,0.1-0.3,0.3-0.3H71
			c0.1,0,0.3,0.1,0.3,0.3v0.4c0,0.1-0.1,0.3-0.3,0.3h-2.3v8.2c0,0.1-0.1,0.3-0.3,0.3h-0.5c-0.1,0-0.3-0.1-0.3-0.3V59.9z" />

<path id="XMLID_342_" fill="#98989A" d="M73.6,68l4-9c0-0.1,0.1-0.1,0.2-0.1H78c0.1,0,0.2,0.1,0.2,0.1l4,9c0.1,0.2,0,0.3-0.2,0.3
			h-0.5c-0.1,0-0.2-0.1-0.2-0.1l-1-2.2h-4.7l-1,2.2c0,0.1-0.1,0.1-0.2,0.1h-0.5C73.6,68.3,73.5,68.2,73.6,68z M79.9,65.2
			c-0.7-1.5-1.3-2.9-1.9-4.4h-0.1l-1.9,4.4H79.9z M76.6,57c-0.1,0-0.1-0.2-0.1-0.3l0.2-0.5c0.1-0.1,0.3-0.1,0.3,0l2,1.1
			c0.1,0,0.1,0.1,0.1,0.3l-0.1,0.3C79,58,79,58,78.8,57.9L76.6,57z" />

<path id="XMLID_339_" fill="#98989A" d="M91.9,59.3c0-0.1,0.1-0.3,0.2-0.3h3c2.6,0,4.7,2.1,4.7,4.6c0,2.6-2.1,4.7-4.7,4.7h-3
			c-0.1,0-0.2-0.1-0.2-0.3V59.3z M94.9,67.4c2.2,0,3.8-1.6,3.8-3.8c0-2.2-1.6-3.7-3.8-3.7h-2v7.5H94.9z" />

<path id="XMLID_337_" fill="#98989A" d="M104.5,59.3c0-0.1,0.1-0.3,0.3-0.3h5.2c0.1,0,0.3,0.1,0.3,0.3v0.4c0,0.1-0.1,0.3-0.3,0.3
			h-4.5v3.2h3.8c0.1,0,0.3,0.1,0.3,0.3v0.4c0,0.1-0.1,0.3-0.3,0.3h-3.8v3.4h4.5c0.1,0,0.3,0.1,0.3,0.3v0.4c0,0.1-0.1,0.3-0.3,0.3
			h-5.2c-0.1,0-0.3-0.1-0.3-0.3V59.3z" />

<path id="XMLID_335_" fill="#98989A" d="M119.2,58.9c1.3,0,2.3,0.5,3.2,1.2c0.1,0.1,0.1,0.3,0,0.4c-0.1,0.1-0.3,0.3-0.4,0.4
			c-0.1,0.1-0.2,0.1-0.3,0c-0.7-0.6-1.6-1-2.5-1c-2.1,0-3.7,1.8-3.7,3.8c0,2.1,1.6,3.8,3.7,3.8c1.5,0,2.4-0.6,2.4-0.6v-1.9H120
			c-0.1,0-0.3-0.1-0.3-0.2v-0.5c0-0.1,0.1-0.3,0.3-0.3h2.3c0.1,0,0.2,0.1,0.2,0.3v3c0,0.1-0.1,0.2-0.1,0.2c0,0-1.4,0.9-3.3,0.9
			c-2.7,0-4.8-2.1-4.8-4.8C114.4,61,116.5,58.9,119.2,58.9z" />

<path id="XMLID_333_" fill="#98989A" d="M127.5,59.3c0-0.1,0.1-0.3,0.3-0.3h0.5c0.1,0,0.3,0.1,0.3,0.3v8.2h3.8c0.1,0,0.3,0.1,0.3,0.3
			v0.4c0,0.1-0.1,0.3-0.3,0.3h-4.6c-0.1,0-0.3-0.1-0.3-0.3V59.3z" />

<path id="XMLID_331_" fill="#98989A" d="M136.7,59.3c0-0.1,0.1-0.3,0.3-0.3h0.5c0.1,0,0.3,0.1,0.3,0.3v8.8c0,0.1-0.1,0.3-0.3,0.3
			h-0.5c-0.1,0-0.3-0.1-0.3-0.3V59.3z" />

<path id="XMLID_329_" fill="#98989A" d="M148.1,66.9c0.1-0.1,0.1-0.2,0.2-0.3c0.1-0.2,0.3-0.3,0.5-0.1c0.1,0.1,1.1,1,2.3,1
			c1.1,0,1.8-0.7,1.8-1.5c0-0.9-0.8-1.5-2.3-2.1c-1.5-0.6-2.3-1.2-2.3-2.8c0-0.9,0.7-2.4,2.8-2.4c1.3,0,2.3,0.7,2.3,0.7
			c0.1,0,0.2,0.2,0.1,0.5c-0.1,0.1-0.1,0.2-0.2,0.3c-0.1,0.2-0.3,0.2-0.5,0.1c-0.1-0.1-0.9-0.6-1.7-0.6c-1.4,0-1.8,0.9-1.8,1.5
			c0,0.9,0.7,1.4,1.8,1.9c1.8,0.7,3,1.4,3,3c0,1.4-1.3,2.4-2.9,2.4c-1.6,0-2.6-0.9-2.8-1.1C148.1,67.3,147.9,67.2,148.1,66.9z" />

<path id="XMLID_326_" fill="#98989A" d="M158.4,59.3c0-0.1,0.1-0.3,0.3-0.3h2.9c1.6,0,3,1.3,3,2.9c0,1.7-1.3,3-3,3h-2.2v3.1
			c0,0.1-0.1,0.3-0.3,0.3h-0.5c-0.1,0-0.3-0.1-0.3-0.3V59.3z M161.6,64c1.1,0,2-0.9,2-2c0-1.1-0.9-1.9-2-1.9h-2.1V64H161.6z" />

<path id="XMLID_210_" fill="#98989A" d="M167.4,68l4-9c0-0.1,0.1-0.1,0.2-0.1h0.1c0.1,0,0.2,0.1,0.2,0.1l4,9c0.1,0.2,0,0.3-0.2,0.3
			h-0.5c-0.1,0-0.2-0.1-0.2-0.1l-1-2.2h-4.7l-1,2.2c0,0.1-0.1,0.1-0.2,0.1h-0.5C167.4,68.3,167.3,68.2,167.4,68z M173.7,65.2
			c-0.7-1.5-1.3-2.9-1.9-4.4h-0.1l-1.9,4.4H173.7z" />

<path id="XMLID_208_" fill="#98989A" d="M179.2,67.8L184,60v0h-4.2c-0.1,0-0.3-0.1-0.3-0.3v-0.4c0-0.1,0.1-0.3,0.3-0.3h5.4
			c0.1,0,0.3,0.1,0.3,0.3v0.2l-4.9,7.9v0h4.4c0.1,0,0.3,0.1,0.3,0.3v0.4c0,0.1-0.1,0.3-0.3,0.3h-5.5c-0.1,0-0.3-0.1-0.3-0.3V67.8z" />

<path id="XMLID_205_" fill="#98989A" d="M189.9,59.3c0-0.1,0.1-0.3,0.3-0.3h0.5c0.1,0,0.3,0.1,0.3,0.3v8.8c0,0.1-0.1,0.3-0.3,0.3
			h-0.5c-0.1,0-0.3-0.1-0.3-0.3V59.3z" />

	</g>
</g>
</svg>
